<svg width="35" height="35" viewBox="0 0 35 35" fill="none" xmlns="http://www.w3.org/2000/svg">
<path d="M2.91602 9.47917C2.91602 6.38558 2.91602 4.83878 3.87707 3.87773C4.83813 2.91667 6.38492 2.91667 9.47852 2.91667C12.5721 2.91667 14.1189 2.91667 15.08 3.87773C16.041 4.83878 16.041 6.38558 16.041 9.47917C16.041 12.5728 16.041 14.1196 15.08 15.0806C14.1189 16.0417 12.5721 16.0417 9.47852 16.0417C6.38492 16.0417 4.83813 16.0417 3.87707 15.0806C2.91602 14.1196 2.91602 12.5728 2.91602 9.47917Z" fill="#749BFF"/>
<path d="M18.959 25.5208C18.959 22.4272 18.959 20.8804 19.92 19.9194C20.8811 18.9583 22.4279 18.9583 25.5215 18.9583C28.6151 18.9583 30.1619 18.9583 31.1229 19.9194C32.084 20.8804 32.084 22.4272 32.084 25.5208C32.084 28.6144 32.084 30.1612 31.1229 31.1223C30.1619 32.0833 28.6151 32.0833 25.5215 32.0833C22.4279 32.0833 20.8811 32.0833 19.92 31.1223C18.959 30.1612 18.959 28.6144 18.959 25.5208Z" fill="#749BFF"/>
<path d="M2.91602 25.5208C2.91602 22.4272 2.91602 20.8804 3.87707 19.9194C4.83813 18.9583 6.38492 18.9583 9.47852 18.9583C12.5721 18.9583 14.1189 18.9583 15.08 19.9194C16.041 20.8804 16.041 22.4272 16.041 25.5208C16.041 28.6144 16.041 30.1612 15.08 31.1223C14.1189 32.0833 12.5721 32.0833 9.47852 32.0833C6.38492 32.0833 4.83813 32.0833 3.87707 31.1223C2.91602 30.1612 2.91602 28.6144 2.91602 25.5208Z" fill="#749BFF"/>
<path d="M18.959 9.47917C18.959 6.38558 18.959 4.83878 19.92 3.87773C20.8811 2.91667 22.4279 2.91667 25.5215 2.91667C28.6151 2.91667 30.1619 2.91667 31.1229 3.87773C32.084 4.83878 32.084 6.38558 32.084 9.47917C32.084 12.5728 32.084 14.1196 31.1229 15.0806C30.1619 16.0417 28.6151 16.0417 25.5215 16.0417C22.4279 16.0417 20.8811 16.0417 19.92 15.0806C18.959 14.1196 18.959 12.5728 18.959 9.47917Z" fill="#749BFF"/>
</svg>
