<svg width="14" height="14" viewBox="0 0 14 14" fill="none" xmlns="http://www.w3.org/2000/svg">
<path d="M10.2863 13.7413C9.74575 14.0195 9.04267 13.5707 7.63653 12.6729L7.27274 12.4406C6.87316 12.1855 6.67337 12.0579 6.44914 12.0213C6.22492 11.9847 6.00164 12.0432 5.5551 12.1602L5.14855 12.2667C3.57714 12.6783 2.79143 12.8841 2.34154 12.4442C1.89166 12.0043 2.07555 11.2101 2.44331 9.6215L2.53846 9.21052C2.64297 8.75911 2.69522 8.5334 2.65279 8.30927C2.61036 8.08515 2.47806 7.88799 2.21344 7.49366L1.97253 7.13465C1.04133 5.74698 0.575735 5.05314 0.838211 4.50308C1.10069 3.95302 1.9174 3.91102 3.55084 3.82701L3.97344 3.80527C4.4376 3.7814 4.66969 3.76946 4.8677 3.66756C5.0657 3.56565 5.2072 3.38531 5.49021 3.02462L5.74786 2.69625C6.74376 1.42699 7.24172 0.792359 7.85382 0.892295C8.46592 0.992232 8.7868 1.76055 9.42855 3.29719L9.59458 3.69473C9.77695 4.1314 9.86813 4.34973 10.0329 4.51087C10.1977 4.67201 10.4175 4.75772 10.857 4.92914L11.2572 5.0852C12.8039 5.68842 13.5772 5.99003 13.693 6.60186C13.8089 7.21368 13.1905 7.73054 11.9536 8.76424L11.6337 9.03167C11.2822 9.32541 11.1065 9.47229 11.0103 9.67379C10.9142 9.87528 10.9085 10.1086 10.8971 10.5752L10.8868 11C10.8468 12.6421 10.8268 13.4632 10.2863 13.7413Z" fill="#787878"/>
</svg>
