<svg width="14" height="14" viewBox="0 0 14 14" fill="none" xmlns="http://www.w3.org/2000/svg">
<path d="M9.81556 13.7413C9.27504 14.0195 8.57197 13.5707 7.16582 12.6729L6.80204 12.4406C6.40245 12.1855 6.20266 12.0579 5.97844 12.0213C5.75421 11.9847 5.53094 12.0432 5.08439 12.1602L4.67785 12.2667C3.10643 12.6783 2.32073 12.8841 1.87084 12.4442C1.42096 12.0043 1.60484 11.2101 1.97261 9.6215L2.06776 9.21052C2.17226 8.75911 2.22452 8.5334 2.18209 8.30927C2.13966 8.08515 2.00735 7.88799 1.74274 7.49366L1.50182 7.13465C0.57063 5.74698 0.105032 5.05314 0.367507 4.50308C0.629982 3.95302 1.4467 3.91102 3.08013 3.82701L3.50273 3.80527C3.9669 3.7814 4.19899 3.76946 4.39699 3.66756C4.595 3.56565 4.7365 3.38531 5.0195 3.02462L5.27715 2.69625C6.27306 1.42699 6.77101 0.792359 7.38312 0.892295C7.99522 0.992232 8.3161 1.76055 8.95785 3.29719L9.12388 3.69473C9.30624 4.1314 9.39743 4.34973 9.56223 4.51087C9.72703 4.67201 9.94679 4.75772 10.3863 4.92914L10.7865 5.0852C12.3332 5.68842 13.1065 5.99003 13.2223 6.60186C13.3382 7.21368 12.7198 7.73054 11.4829 8.76424L11.163 9.03167C10.8115 9.32541 10.6358 9.47229 10.5396 9.67379C10.4435 9.87528 10.4378 10.1086 10.4264 10.5752L10.4161 11C10.3761 12.6421 10.3561 13.4632 9.81556 13.7413Z" fill="#FFE456"/>
</svg>
